<svg xmlns="http://www.w3.org/2000/svg" viewBox="0 0 512 512">
  <!-- Dark teal background -->
  <rect width="512" height="512" rx="96" fill="#0f1a1a"/>

  <!-- Gear ring (8 teeth, fill-rule=evenodd creates center hole) -->
  <path fill="#2dd4bf" fill-rule="evenodd" d="
    M 241.8 108.7 L 245.5 84.3 L 266.5 84.3 L 270.2 108.7
    A 148 148 0 0 1 350.3 142.0
    L 370.0 127.2 L 384.8 142.0 L 370.0 161.7
    A 148 148 0 0 1 403.3 241.8
    L 427.7 245.5 L 427.7 266.5 L 403.3 270.2
    A 148 148 0 0 1 370.0 350.3
    L 384.8 370.0 L 370.0 384.8 L 350.3 370.0
    A 148 148 0 0 1 270.2 403.3
    L 266.5 427.7 L 245.5 427.7 L 241.8 403.3
    A 148 148 0 0 1 161.7 370.0
    L 142.0 384.8 L 127.2 370.0 L 142.0 350.3
    A 148 148 0 0 1 108.7 270.2
    L 84.3 266.5 L 84.3 245.5 L 108.7 241.8
    A 148 148 0 0 1 142.0 161.7
    L 127.2 142.0 L 142.0 127.2 L 161.7 142.0
    A 148 148 0 0 1 241.8 108.7 Z
    M 366 256 A 110 110 0 0 1 256 366 A 110 110 0 0 1 146 256 A 110 110 0 0 1 256 146 A 110 110 0 0 1 366 256 Z
  "/>

  <!-- AI text centered in the hole -->
  <text x="256" y="256"
    font-family="'Arial Black', 'Helvetica Neue', Arial, sans-serif"
    font-size="115"
    font-weight="900"
    fill="#ffffff"
    text-anchor="middle"
    dominant-baseline="central">AI</text>

  <!-- Thai flag stripes at bottom -->
  <rect x="146" y="452" width="220" height="12" rx="3" fill="#c8102e"/>
  <rect x="146" y="468" width="220" height="12" rx="3" fill="#f0f0f0"/>
  <rect x="146" y="484" width="220" height="12" rx="3" fill="#2d2e82"/>
</svg>
